<?xml version="1.0" encoding="UTF-8" standalone="no"?>
<!-- Created with Inkscape (http://www.inkscape.org/) -->

<svg
   xmlns:dc="http://purl.org/dc/elements/1.1/"
   xmlns:cc="http://creativecommons.org/ns#"
   xmlns:rdf="http://www.w3.org/1999/02/22-rdf-syntax-ns#"
   xmlns:svg="http://www.w3.org/2000/svg"
   xmlns="http://www.w3.org/2000/svg"
   xmlns:sodipodi="http://sodipodi.sourceforge.net/DTD/sodipodi-0.dtd"
   xmlns:inkscape="http://www.inkscape.org/namespaces/inkscape"
   width="210mm"
   height="297mm"
   viewBox="0 0 210 297"
   version="1.1"
   id="svg8"
   inkscape:version="0.92.2 (5c3e80d, 2017-08-06)"
   sodipodi:docname="strobe-logo.svg">
  <defs
     id="defs2" />
  <sodipodi:namedview
     id="base"
     pagecolor="#ffffff"
     bordercolor="#666666"
     borderopacity="1.0"
     inkscape:pageopacity="0.0"
     inkscape:pageshadow="2"
     inkscape:zoom="0.69040128"
     inkscape:cx="297.09509"
     inkscape:cy="829.31815"
     inkscape:document-units="mm"
     inkscape:current-layer="layer1"
     showgrid="false"
     inkscape:window-width="1366"
     inkscape:window-height="713"
     inkscape:window-x="0"
     inkscape:window-y="27"
     inkscape:window-maximized="1" />
  <metadata
     id="metadata5">
    <rdf:RDF>
      <cc:Work
         rdf:about="">
        <dc:format>image/svg+xml</dc:format>
        <dc:type
           rdf:resource="http://purl.org/dc/dcmitype/StillImage" />
        <dc:title></dc:title>
      </cc:Work>
    </rdf:RDF>
  </metadata>
  <g
     inkscape:label="Layer 1"
     inkscape:groupmode="layer"
     id="layer1">
    <g
       id="g4831"
       transform="matrix(0.325473,0,0,0.325473,0.98915164,3.6061533)"
       inkscape:export-filename="/home/amimaro/Desktop/asd.png"
       inkscape:export-xdpi="308.32999"
       inkscape:export-ydpi="308.32999">
      <path
         id="path954"
         d="m 150.01122,12.769763 2.99986,18.982822 1.99114,12.598712 a 11.276633,6.4144686 0 0 1 1.00934,-0.03049 11.276633,6.4144686 0 0 1 1.00927,0.02894 l 1.99052,-12.597161 2.99987,-18.982822 h -5.99966 z"
         style="opacity:1;fill:#fa0f00;fill-opacity:0.99215686;stroke:none;stroke-width:0.24416327;stroke-linecap:round;stroke-linejoin:round;stroke-miterlimit:4;stroke-dasharray:none;stroke-opacity:1"
         inkscape:connector-curvature="0" />
      <path
         id="path956"
         d="m 157.02022,57.118993 a 11.276633,6.4144686 0 0 1 -1.00866,0.03049 11.276633,6.4144686 0 0 1 -1.00934,-0.02894 l -1.99114,12.597164 -2.99986,18.98282 h 6.00034 5.99966 l -2.99987,-18.98282 z"
         style="opacity:1;fill:#00fad0;fill-opacity:0.99215686;stroke:none;stroke-width:0.24416327;stroke-linecap:round;stroke-linejoin:round;stroke-miterlimit:4;stroke-dasharray:none;stroke-opacity:1"
         inkscape:connector-curvature="0" />
      <path
         inkscape:connector-curvature="0"
         style="opacity:1;fill:#e3fb00;fill-opacity:0.99215686;stroke:none;stroke-width:0.24416327;stroke-linecap:round;stroke-linejoin:round;stroke-miterlimit:4;stroke-dasharray:none;stroke-opacity:1"
         d="m 193.9766,44.735145 -18.98282,2.99986 -12.59871,1.99114 a 6.4144686,11.276633 0 0 1 0.0305,1.00934 6.4144686,11.276633 0 0 1 -0.0289,1.00927 l 12.59716,1.99052 18.98282,2.99987 v -5.99966 z"
         id="path1108" />
      <path
         inkscape:connector-curvature="0"
         style="opacity:1;fill:#e300fb;fill-opacity:0.99215686;stroke:none;stroke-width:0.24416327;stroke-linecap:round;stroke-linejoin:round;stroke-miterlimit:4;stroke-dasharray:none;stroke-opacity:1"
         d="m 149.62737,51.744145 a 6.4144686,11.276633 0 0 1 -0.0305,-1.00866 6.4144686,11.276633 0 0 1 0.0289,-1.00934 l -12.59716,-1.99114 -18.98282,-2.99986 v 6.00034 5.99966 l 18.98282,-2.99987 z"
         id="path1110" />
      <path
         id="path1114"
         d="m 178.61416,19.646925 -11.30166,15.544104 -7.50069,10.316583 a 11.276633,6.4144686 45 0 1 0.73527,0.692152 11.276633,6.4144686 45 0 1 0.6932,0.734125 l 10.31505,-7.500028 15.54411,-11.301654 -4.2424,-4.2424 z"
         style="opacity:1;fill:#fb9800;fill-opacity:0.99215686;stroke:none;stroke-width:0.24416327;stroke-linecap:round;stroke-linejoin:round;stroke-miterlimit:4;stroke-dasharray:none;stroke-opacity:1"
         inkscape:connector-curvature="0" />
      <path
         id="path1116"
         d="m 152.21063,55.962678 a 11.276633,6.4144686 45 0 1 -0.73479,-0.691671 11.276633,6.4144686 45 0 1 -0.69325,-0.734175 l -10.31549,7.499592 -15.5441,11.301659 4.24288,4.242881 4.2424,4.242401 11.30165,-15.544109 z"
         style="opacity:1;fill:#001cfb;fill-opacity:0.99215686;stroke:none;stroke-width:0.24416327;stroke-linecap:round;stroke-linejoin:round;stroke-miterlimit:4;stroke-dasharray:none;stroke-opacity:1"
         inkscape:connector-curvature="0" />
      <path
         inkscape:connector-curvature="0"
         style="opacity:1;fill:#fb00af;fill-opacity:0.99215686;stroke:none;stroke-width:0.24416327;stroke-linecap:round;stroke-linejoin:round;stroke-miterlimit:4;stroke-dasharray:none;stroke-opacity:1"
         d="m 124.923,28.132207 15.5441,11.30166 10.31659,7.500687 a 6.4144686,11.276633 45 0 1 0.69215,-0.735271 6.4144686,11.276633 45 0 1 0.73412,-0.693198 l -7.50002,-10.315048 -11.30166,-15.544111 -4.2424,4.2424 z"
         id="path1120" />
      <path
         inkscape:connector-curvature="0"
         style="opacity:1;fill:#23fb00;fill-opacity:0.99215686;stroke:none;stroke-width:0.24416327;stroke-linecap:round;stroke-linejoin:round;stroke-miterlimit:4;stroke-dasharray:none;stroke-opacity:1"
         d="m 161.23875,54.535736 a 6.4144686,11.276633 45 0 1 -0.69167,0.73479 6.4144686,11.276633 45 0 1 -0.73417,0.693248 l 7.49959,10.315489 11.30166,15.544102 4.24288,-4.242881 4.2424,-4.242401 -15.54411,-11.301652 z"
         id="path1122" />
    </g>
    <g
       id="g4871"
       inkscape:export-filename="/home/amimaro/Desktop/asd.png"
       inkscape:export-xdpi="200"
       inkscape:export-ydpi="200"
       transform="matrix(0.325473,0,0,0.325473,3.0805094,5.6975113)">
      <rect
         ry="7.0034394"
         y="3.2223878"
         x="6.0669179"
         height="82.174324"
         width="82.174324"
         id="rect932"
         style="opacity:1;fill:none;fill-opacity:0.99215686;stroke:#bdbdbd;stroke-width:3;stroke-linecap:round;stroke-linejoin:round;stroke-miterlimit:4;stroke-dasharray:none;stroke-opacity:1" />
      <g
         id="g4859"
         transform="translate(-108.85714,-6.4255952)">
        <path
           id="path4843"
           d="m 150.01122,12.769763 2.99986,18.982822 1.99114,12.598712 a 11.276633,6.4144686 0 0 1 1.00934,-0.03049 11.276633,6.4144686 0 0 1 1.00927,0.02894 l 1.99052,-12.597161 2.99987,-18.982822 h -5.99966 z"
           style="opacity:1;fill:#fa0f00;fill-opacity:0.99215686;stroke:none;stroke-width:0.24416327;stroke-linecap:round;stroke-linejoin:round;stroke-miterlimit:4;stroke-dasharray:none;stroke-opacity:1"
           inkscape:connector-curvature="0" />
        <path
           id="path4845"
           d="m 157.02022,57.118993 a 11.276633,6.4144686 0 0 1 -1.00866,0.03049 11.276633,6.4144686 0 0 1 -1.00934,-0.02894 l -1.99114,12.597164 -2.99986,18.98282 h 6.00034 5.99966 l -2.99987,-18.98282 z"
           style="opacity:1;fill:#00fad0;fill-opacity:0.99215686;stroke:none;stroke-width:0.24416327;stroke-linecap:round;stroke-linejoin:round;stroke-miterlimit:4;stroke-dasharray:none;stroke-opacity:1"
           inkscape:connector-curvature="0" />
        <path
           inkscape:connector-curvature="0"
           style="opacity:1;fill:#e3fb00;fill-opacity:0.99215686;stroke:none;stroke-width:0.24416327;stroke-linecap:round;stroke-linejoin:round;stroke-miterlimit:4;stroke-dasharray:none;stroke-opacity:1"
           d="m 193.9766,44.735145 -18.98282,2.99986 -12.59871,1.99114 a 6.4144686,11.276633 0 0 1 0.0305,1.00934 6.4144686,11.276633 0 0 1 -0.0289,1.00927 l 12.59716,1.99052 18.98282,2.99987 v -5.99966 z"
           id="path4847" />
        <path
           inkscape:connector-curvature="0"
           style="opacity:1;fill:#e300fb;fill-opacity:0.99215686;stroke:none;stroke-width:0.24416327;stroke-linecap:round;stroke-linejoin:round;stroke-miterlimit:4;stroke-dasharray:none;stroke-opacity:1"
           d="m 149.62737,51.744145 a 6.4144686,11.276633 0 0 1 -0.0305,-1.00866 6.4144686,11.276633 0 0 1 0.0289,-1.00934 l -12.59716,-1.99114 -18.98282,-2.99986 v 6.00034 5.99966 l 18.98282,-2.99987 z"
           id="path4849" />
        <path
           id="path4851"
           d="m 178.61416,19.646925 -11.30166,15.544104 -7.50069,10.316583 a 11.276633,6.4144686 45 0 1 0.73527,0.692152 11.276633,6.4144686 45 0 1 0.6932,0.734125 l 10.31505,-7.500028 15.54411,-11.301654 -4.2424,-4.2424 z"
           style="opacity:1;fill:#fb9800;fill-opacity:0.99215686;stroke:none;stroke-width:0.24416327;stroke-linecap:round;stroke-linejoin:round;stroke-miterlimit:4;stroke-dasharray:none;stroke-opacity:1"
           inkscape:connector-curvature="0" />
        <path
           id="path4853"
           d="m 152.21063,55.962678 a 11.276633,6.4144686 45 0 1 -0.73479,-0.691671 11.276633,6.4144686 45 0 1 -0.69325,-0.734175 l -10.31549,7.499592 -15.5441,11.301659 4.24288,4.242881 4.2424,4.242401 11.30165,-15.544109 z"
           style="opacity:1;fill:#001cfb;fill-opacity:0.99215686;stroke:none;stroke-width:0.24416327;stroke-linecap:round;stroke-linejoin:round;stroke-miterlimit:4;stroke-dasharray:none;stroke-opacity:1"
           inkscape:connector-curvature="0" />
        <path
           inkscape:connector-curvature="0"
           style="opacity:1;fill:#fb00af;fill-opacity:0.99215686;stroke:none;stroke-width:0.24416327;stroke-linecap:round;stroke-linejoin:round;stroke-miterlimit:4;stroke-dasharray:none;stroke-opacity:1"
           d="m 124.923,28.132207 15.5441,11.30166 10.31659,7.500687 a 6.4144686,11.276633 45 0 1 0.69215,-0.735271 6.4144686,11.276633 45 0 1 0.73412,-0.693198 l -7.50002,-10.315048 -11.30166,-15.544111 -4.2424,4.2424 z"
           id="path4855" />
        <path
           inkscape:connector-curvature="0"
           style="opacity:1;fill:#23fb00;fill-opacity:0.99215686;stroke:none;stroke-width:0.24416327;stroke-linecap:round;stroke-linejoin:round;stroke-miterlimit:4;stroke-dasharray:none;stroke-opacity:1"
           d="m 161.23875,54.535736 a 6.4144686,11.276633 45 0 1 -0.69167,0.73479 6.4144686,11.276633 45 0 1 -0.73417,0.693248 l 7.49959,10.315489 11.30166,15.544102 4.24288,-4.242881 4.2424,-4.242401 -15.54411,-11.301652 z"
           id="path4857" />
      </g>
    </g>
    <g
       id="g5400">
      <path
         inkscape:connector-curvature="0"
         style="opacity:0.5;fill:#c8c8c8;fill-opacity:1;stroke:none;stroke-width:0.07946856;stroke-linecap:round;stroke-linejoin:round;stroke-miterlimit:4;stroke-dasharray:none;stroke-opacity:1"
         d="m 31.639426,78.85606 0.976373,6.178396 0.648063,4.100541 a 3.6702396,2.0877363 0 0 1 0.328512,-0.0099 3.6702396,2.0877363 0 0 1 0.328491,0.0094 l 0.64786,-4.100036 0.976377,-6.178396 h -1.952728 z"
         id="path4924" />
      <path
         inkscape:connector-curvature="0"
         style="opacity:0.5;fill:#c8c8c8;fill-opacity:1;stroke:none;stroke-width:0.07946856;stroke-linecap:round;stroke-linejoin:round;stroke-miterlimit:4;stroke-dasharray:none;stroke-opacity:1"
         d="m 33.920666,93.290537 a 3.6702396,2.0877363 0 0 1 -0.328292,0.0099 3.6702396,2.0877363 0 0 1 -0.328512,-0.0094 l -0.648063,4.100037 -0.976373,6.178396 h 1.952948 1.952728 l -0.976377,-6.178396 z"
         id="path4926" />
      <path
         id="path4928"
         d="m 45.94897,89.259929 -6.178395,0.976373 -4.10054,0.648063 a 2.0877363,3.6702396 0 0 1 0.0099,0.328513 2.0877363,3.6702396 0 0 1 -0.0094,0.32849 l 4.100036,0.64786 6.178395,0.976377 v -1.952727 z"
         style="opacity:0.5;fill:#c8c8c8;fill-opacity:1;stroke:none;stroke-width:0.07946856;stroke-linecap:round;stroke-linejoin:round;stroke-miterlimit:4;stroke-dasharray:none;stroke-opacity:1"
         inkscape:connector-curvature="0" />
      <path
         id="path4930"
         d="m 31.514493,91.541169 a 2.0877363,3.6702396 0 0 1 -0.0099,-0.328291 2.0877363,3.6702396 0 0 1 0.0094,-0.328513 l -4.100035,-0.648063 -6.178396,-0.976373 v 1.952949 1.952727 l 6.178396,-0.976377 z"
         style="opacity:0.5;fill:#c8c8c8;fill-opacity:1;stroke:none;stroke-width:0.07946856;stroke-linecap:round;stroke-linejoin:round;stroke-miterlimit:4;stroke-dasharray:none;stroke-opacity:1"
         inkscape:connector-curvature="0" />
      <path
         inkscape:connector-curvature="0"
         style="opacity:0.5;fill:#c8c8c8;fill-opacity:1;stroke:none;stroke-width:0.07946856;stroke-linecap:round;stroke-linejoin:round;stroke-miterlimit:4;stroke-dasharray:none;stroke-opacity:1"
         d="m 40.94891,81.094391 -3.678385,5.059186 -2.441272,3.357769 a 3.6702396,2.0877363 45 0 1 0.239311,0.225277 3.6702396,2.0877363 45 0 1 0.225618,0.238938 l 3.35727,-2.441057 5.059188,-3.678383 -1.380787,-1.380787 z"
         id="path4932" />
      <path
         inkscape:connector-curvature="0"
         style="opacity:0.5;fill:#c8c8c8;fill-opacity:1;stroke:none;stroke-width:0.07946856;stroke-linecap:round;stroke-linejoin:round;stroke-miterlimit:4;stroke-dasharray:none;stroke-opacity:1"
         d="M 32.355274,92.914188 A 3.6702396,2.0877363 45 0 1 32.11612,92.689067 3.6702396,2.0877363 45 0 1 31.890486,92.450113 l -3.357414,2.440915 -5.059184,3.678385 1.380942,1.380943 1.380787,1.380784 3.678382,-5.059185 z"
         id="path4934" />
      <path
         id="path4936"
         d="m 23.473888,83.856121 5.059184,3.678385 3.357772,2.441271 a 2.0877363,3.6702396 45 0 1 0.225276,-0.239311 2.0877363,3.6702396 45 0 1 0.238936,-0.225617 l -2.441054,-3.35727 -3.678385,-5.059188 -1.380787,1.380787 z"
         style="opacity:0.5;fill:#c8c8c8;fill-opacity:1;stroke:none;stroke-width:0.07946856;stroke-linecap:round;stroke-linejoin:round;stroke-miterlimit:4;stroke-dasharray:none;stroke-opacity:1"
         inkscape:connector-curvature="0" />
      <path
         id="path4938"
         d="m 35.293684,92.449757 a 2.0877363,3.6702396 45 0 1 -0.22512,0.239154 2.0877363,3.6702396 45 0 1 -0.238953,0.225633 l 2.440914,3.357414 3.678385,5.059182 1.380943,-1.38094 1.380787,-1.380787 -5.059188,-3.678383 z"
         style="opacity:0.5;fill:#c8c8c8;fill-opacity:1;stroke:none;stroke-width:0.07946856;stroke-linecap:round;stroke-linejoin:round;stroke-miterlimit:4;stroke-dasharray:none;stroke-opacity:1"
         inkscape:connector-curvature="0" />
    </g>
    <g
       id="g5320"
       inkscape:export-filename="/home/amimaro/1.png"
       inkscape:export-xdpi="308"
       inkscape:export-ydpi="308">
      <path
         id="path4942"
         d="m 62.324302,78.85606 0.976373,6.178396 0.648062,4.100541 a 3.6702396,2.0877363 0 0 1 0.328513,-0.0099 3.6702396,2.0877363 0 0 1 0.32849,0.0094 l 0.647861,-4.100036 0.976377,-6.178396 H 64.27725 Z"
         style="opacity:1;fill:#fa0f00;fill-opacity:0.99215686;stroke:none;stroke-width:0.07946856;stroke-linecap:round;stroke-linejoin:round;stroke-miterlimit:4;stroke-dasharray:none;stroke-opacity:1"
         inkscape:connector-curvature="0" />
      <path
         id="path4944"
         d="m 64.605542,93.290537 a 3.6702396,2.0877363 0 0 1 -0.328292,0.0099 3.6702396,2.0877363 0 0 1 -0.328513,-0.0094 l -0.648062,4.100037 -0.976373,6.178396 h 1.952948 1.952728 l -0.976377,-6.178392 z"
         style="opacity:0.5;fill:#c8c8c8;fill-opacity:1;stroke:none;stroke-width:0.07946856;stroke-linecap:round;stroke-linejoin:round;stroke-miterlimit:4;stroke-dasharray:none;stroke-opacity:1"
         inkscape:connector-curvature="0" />
      <path
         inkscape:connector-curvature="0"
         style="opacity:0.5;fill:#c8c8c8;fill-opacity:1;stroke:none;stroke-width:0.07946856;stroke-linecap:round;stroke-linejoin:round;stroke-miterlimit:4;stroke-dasharray:none;stroke-opacity:1"
         d="m 76.633846,89.259929 -6.178396,0.976373 -4.10054,0.648063 a 2.0877363,3.6702396 0 0 1 0.0099,0.328513 2.0877363,3.6702396 0 0 1 -0.0094,0.32849 l 4.100036,0.64786 6.178395,0.976377 v -1.952727 z"
         id="path4946" />
      <path
         inkscape:connector-curvature="0"
         style="opacity:0.5;fill:#c8c8c8;fill-opacity:1;stroke:none;stroke-width:0.07946856;stroke-linecap:round;stroke-linejoin:round;stroke-miterlimit:4;stroke-dasharray:none;stroke-opacity:1"
         d="m 62.199369,91.541169 a 2.0877363,3.6702396 0 0 1 -0.0099,-0.328291 2.0877363,3.6702396 0 0 1 0.0094,-0.328513 l -4.100036,-0.648063 -6.178395,-0.976373 v 1.952949 1.952727 l 6.178395,-0.976377 z"
         id="path4948" />
      <path
         id="path4950"
         d="m 71.633786,81.094391 -3.678385,5.059186 -2.441272,3.357769 a 3.6702396,2.0877363 45 0 1 0.23931,0.225277 3.6702396,2.0877363 45 0 1 0.225618,0.238938 l 3.357271,-2.441057 5.059188,-3.678383 -1.380787,-1.380787 z"
         style="opacity:0.5;fill:#c8c8c8;fill-opacity:1;stroke:none;stroke-width:0.07946856;stroke-linecap:round;stroke-linejoin:round;stroke-miterlimit:4;stroke-dasharray:none;stroke-opacity:1"
         inkscape:connector-curvature="0" />
      <path
         id="path4952"
         d="m 63.04015,92.914188 a 3.6702396,2.0877363 45 0 1 -0.239154,-0.225121 3.6702396,2.0877363 45 0 1 -0.225634,-0.238954 l -3.357414,2.440915 -5.059185,3.678385 1.380943,1.380943 1.380787,1.380784 3.678382,-5.059185 z"
         style="opacity:0.5;fill:#c8c8c8;fill-opacity:1;stroke:none;stroke-width:0.07946856;stroke-linecap:round;stroke-linejoin:round;stroke-miterlimit:4;stroke-dasharray:none;stroke-opacity:1"
         inkscape:connector-curvature="0" />
      <path
         inkscape:connector-curvature="0"
         style="opacity:0.5;fill:#c8c8c8;fill-opacity:1;stroke:none;stroke-width:0.07946856;stroke-linecap:round;stroke-linejoin:round;stroke-miterlimit:4;stroke-dasharray:none;stroke-opacity:1"
         d="m 54.158763,83.856121 5.059185,3.678385 3.357772,2.441271 a 2.0877363,3.6702396 45 0 1 0.225276,-0.239311 2.0877363,3.6702396 45 0 1 0.238936,-0.225617 l -2.441054,-3.35727 -3.678385,-5.059188 -1.380787,1.380787 z"
         id="path4954" />
      <path
         inkscape:connector-curvature="0"
         style="opacity:0.5;fill:#c8c8c8;fill-opacity:1;stroke:none;stroke-width:0.07946856;stroke-linecap:round;stroke-linejoin:round;stroke-miterlimit:4;stroke-dasharray:none;stroke-opacity:1"
         d="m 65.978559,92.449757 a 2.0877363,3.6702396 45 0 1 -0.22512,0.239154 2.0877363,3.6702396 45 0 1 -0.238952,0.225633 l 2.440914,3.357414 3.678385,5.059182 1.380943,-1.38094 1.380787,-1.380787 -5.059188,-3.678383 z"
         id="path4956" />
    </g>
    <g
       id="g5330"
       inkscape:export-filename="/home/amimaro/2.png"
       inkscape:export-xdpi="308"
       inkscape:export-ydpi="308">
      <path
         inkscape:connector-curvature="0"
         style="opacity:0.5;fill:#c8c8c8;fill-opacity:1;stroke:none;stroke-width:0.07946856;stroke-linecap:round;stroke-linejoin:round;stroke-miterlimit:4;stroke-dasharray:none;stroke-opacity:1"
         d="m 93.009187,78.85606 0.976373,6.178396 0.648062,4.100541 a 3.6702396,2.0877363 0 0 1 0.328513,-0.0099 3.6702396,2.0877363 0 0 1 0.32849,0.0094 l 0.647861,-4.100036 0.976377,-6.178396 h -1.952728 z"
         id="path4976" />
      <path
         inkscape:connector-curvature="0"
         style="opacity:0.5;fill:#c8c8c8;fill-opacity:1;stroke:none;stroke-width:0.07946856;stroke-linecap:round;stroke-linejoin:round;stroke-miterlimit:4;stroke-dasharray:none;stroke-opacity:1"
         d="m 95.290427,93.290537 a 3.6702396,2.0877363 0 0 1 -0.328292,0.0099 3.6702396,2.0877363 0 0 1 -0.328513,-0.0094 l -0.648062,4.100037 -0.976373,6.178396 h 1.952948 1.952728 l -0.976377,-6.178392 z"
         id="path4978" />
      <path
         id="path4980"
         d="m 107.31873,89.259929 -6.1784,0.976373 -4.100535,0.648063 a 2.0877363,3.6702396 0 0 1 0.0099,0.328513 2.0877363,3.6702396 0 0 1 -0.0094,0.32849 l 4.100035,0.64786 6.1784,0.976377 v -1.952727 z"
         style="opacity:0.5;fill:#c8c8c8;fill-opacity:1;stroke:none;stroke-width:0.07946856;stroke-linecap:round;stroke-linejoin:round;stroke-miterlimit:4;stroke-dasharray:none;stroke-opacity:1"
         inkscape:connector-curvature="0" />
      <path
         id="path4982"
         d="m 92.884254,91.541169 a 2.0877363,3.6702396 0 0 1 -0.0099,-0.328291 2.0877363,3.6702396 0 0 1 0.0094,-0.328513 l -4.100036,-0.648063 -6.178395,-0.976373 v 1.952949 1.952727 l 6.178395,-0.976377 z"
         style="opacity:0.5;fill:#c8c8c8;fill-opacity:1;stroke:none;stroke-width:0.07946856;stroke-linecap:round;stroke-linejoin:round;stroke-miterlimit:4;stroke-dasharray:none;stroke-opacity:1"
         inkscape:connector-curvature="0" />
      <path
         inkscape:connector-curvature="0"
         style="opacity:1;fill:#fb9800;fill-opacity:0.99215686;stroke:none;stroke-width:0.07946856;stroke-linecap:round;stroke-linejoin:round;stroke-miterlimit:4;stroke-dasharray:none;stroke-opacity:1"
         d="m 102.31867,81.094391 -3.678384,5.059186 -2.441272,3.357769 a 3.6702396,2.0877363 45 0 1 0.23931,0.225277 3.6702396,2.0877363 45 0 1 0.225618,0.238938 l 3.357268,-2.441057 5.05919,-3.678383 -1.38079,-1.380787 z"
         id="path4984" />
      <path
         inkscape:connector-curvature="0"
         style="opacity:0.5;fill:#c8c8c8;fill-opacity:1;stroke:none;stroke-width:0.07946856;stroke-linecap:round;stroke-linejoin:round;stroke-miterlimit:4;stroke-dasharray:none;stroke-opacity:1"
         d="m 93.725035,92.914188 a 3.6702396,2.0877363 45 0 1 -0.239154,-0.225121 3.6702396,2.0877363 45 0 1 -0.225634,-0.238954 l -3.357414,2.440915 -5.059185,3.678385 1.380943,1.380943 1.380787,1.380784 3.678382,-5.059185 z"
         id="path4986" />
      <path
         id="path4988"
         d="m 84.843648,83.856121 5.059185,3.678385 3.357772,2.441271 a 2.0877363,3.6702396 45 0 1 0.225276,-0.239311 2.0877363,3.6702396 45 0 1 0.238936,-0.225617 l -2.441054,-3.35727 -3.678385,-5.059188 -1.380787,1.380787 z"
         style="opacity:0.5;fill:#c8c8c8;fill-opacity:1;stroke:none;stroke-width:0.07946856;stroke-linecap:round;stroke-linejoin:round;stroke-miterlimit:4;stroke-dasharray:none;stroke-opacity:1"
         inkscape:connector-curvature="0" />
      <path
         id="path4990"
         d="m 96.663444,92.449757 a 2.0877363,3.6702396 45 0 1 -0.22512,0.239154 2.0877363,3.6702396 45 0 1 -0.238952,0.225633 l 2.440914,3.357414 3.678384,5.059182 1.38094,-1.38094 1.38079,-1.380787 -5.05919,-3.678383 z"
         style="opacity:0.5;fill:#c8c8c8;fill-opacity:1;stroke:none;stroke-width:0.07946856;stroke-linecap:round;stroke-linejoin:round;stroke-miterlimit:4;stroke-dasharray:none;stroke-opacity:1"
         inkscape:connector-curvature="0" />
    </g>
    <g
       id="g5340"
       inkscape:export-filename="/home/amimaro/3.png"
       inkscape:export-xdpi="308"
       inkscape:export-ydpi="308">
      <path
         id="path4992"
         d="m 123.69406,78.85606 0.97637,6.178396 0.64807,4.100541 a 3.6702396,2.0877363 0 0 1 0.32851,-0.0099 3.6702396,2.0877363 0 0 1 0.32849,0.0094 l 0.64786,-4.100036 0.97638,-6.178396 h -1.95273 z"
         style="opacity:0.5;fill:#c8c8c8;fill-opacity:1;stroke:none;stroke-width:0.07946856;stroke-linecap:round;stroke-linejoin:round;stroke-miterlimit:4;stroke-dasharray:none;stroke-opacity:1"
         inkscape:connector-curvature="0" />
      <path
         id="path4994"
         d="m 125.9753,93.290537 a 3.6702396,2.0877363 0 0 1 -0.32829,0.0099 3.6702396,2.0877363 0 0 1 -0.32851,-0.0094 l -0.64807,4.100037 -0.97637,6.178396 h 1.95295 1.95273 l -0.97638,-6.178392 z"
         style="opacity:0.5;fill:#c8c8c8;fill-opacity:1;stroke:none;stroke-width:0.07946856;stroke-linecap:round;stroke-linejoin:round;stroke-miterlimit:4;stroke-dasharray:none;stroke-opacity:1"
         inkscape:connector-curvature="0" />
      <path
         inkscape:connector-curvature="0"
         style="opacity:1;fill:#e3fb00;fill-opacity:0.99215686;stroke:none;stroke-width:0.07946856;stroke-linecap:round;stroke-linejoin:round;stroke-miterlimit:4;stroke-dasharray:none;stroke-opacity:1"
         d="m 138.00361,89.259929 -6.1784,0.976373 -4.10054,0.648063 a 2.0877363,3.6702396 0 0 1 0.01,0.328513 2.0877363,3.6702396 0 0 1 -0.009,0.32849 l 4.10004,0.64786 6.17839,0.976377 v -1.952727 z"
         id="path4996" />
      <path
         inkscape:connector-curvature="0"
         style="opacity:0.5;fill:#c8c8c8;fill-opacity:1;stroke:none;stroke-width:0.07946856;stroke-linecap:round;stroke-linejoin:round;stroke-miterlimit:4;stroke-dasharray:none;stroke-opacity:1"
         d="m 123.56913,91.541169 a 2.0877363,3.6702396 0 0 1 -0.01,-0.328291 2.0877363,3.6702396 0 0 1 0.009,-0.328513 l -4.10004,-0.648063 -6.17839,-0.976373 v 1.952949 1.952727 l 6.17839,-0.976377 z"
         id="path4998" />
      <path
         id="path5000"
         d="m 133.00355,81.094391 -3.67839,5.059186 -2.44127,3.357769 a 3.6702396,2.0877363 45 0 1 0.23931,0.225277 3.6702396,2.0877363 45 0 1 0.22562,0.238938 l 3.35727,-2.441057 5.05919,-3.678383 -1.38079,-1.380787 z"
         style="opacity:0.5;fill:#c8c8c8;fill-opacity:1;stroke:none;stroke-width:0.07946856;stroke-linecap:round;stroke-linejoin:round;stroke-miterlimit:4;stroke-dasharray:none;stroke-opacity:1"
         inkscape:connector-curvature="0" />
      <path
         id="path5002"
         d="m 124.40991,92.914188 a 3.6702396,2.0877363 45 0 1 -0.23915,-0.225121 3.6702396,2.0877363 45 0 1 -0.22564,-0.238954 l -3.35741,2.440915 -5.05919,3.678385 1.38095,1.380943 1.38078,1.380784 3.67838,-5.059185 z"
         style="opacity:0.5;fill:#c8c8c8;fill-opacity:1;stroke:none;stroke-width:0.07946856;stroke-linecap:round;stroke-linejoin:round;stroke-miterlimit:4;stroke-dasharray:none;stroke-opacity:1"
         inkscape:connector-curvature="0" />
      <path
         inkscape:connector-curvature="0"
         style="opacity:0.5;fill:#c8c8c8;fill-opacity:1;stroke:none;stroke-width:0.07946856;stroke-linecap:round;stroke-linejoin:round;stroke-miterlimit:4;stroke-dasharray:none;stroke-opacity:1"
         d="m 115.52852,83.856121 5.05919,3.678385 3.35777,2.441271 a 2.0877363,3.6702396 45 0 1 0.22528,-0.239311 2.0877363,3.6702396 45 0 1 0.23893,-0.225617 l -2.44105,-3.35727 -3.67839,-5.059188 -1.38078,1.380787 z"
         id="path5004" />
      <path
         inkscape:connector-curvature="0"
         style="opacity:0.5;fill:#c8c8c8;fill-opacity:1;stroke:none;stroke-width:0.07946856;stroke-linecap:round;stroke-linejoin:round;stroke-miterlimit:4;stroke-dasharray:none;stroke-opacity:1"
         d="m 127.34832,92.449757 a 2.0877363,3.6702396 45 0 1 -0.22512,0.239154 2.0877363,3.6702396 45 0 1 -0.23895,0.225633 l 2.44091,3.357414 3.67839,5.059182 1.38094,-1.38094 1.38079,-1.380787 -5.05919,-3.678383 z"
         id="path5006" />
    </g>
    <g
       id="g5350"
       inkscape:export-filename="/home/amimaro/4.png"
       inkscape:export-xdpi="308"
       inkscape:export-ydpi="308"
       style="stroke:none">
      <path
         inkscape:connector-curvature="0"
         style="opacity:0.5;fill:#c8c8c8;fill-opacity:1;stroke:none;stroke-width:0.07946856;stroke-linecap:round;stroke-linejoin:round;stroke-miterlimit:4;stroke-dasharray:none;stroke-opacity:1"
         d="m 154.37894,78.85606 0.97637,6.178396 0.64807,4.100541 a 3.6702396,2.0877363 0 0 1 0.32851,-0.0099 3.6702396,2.0877363 0 0 1 0.32849,0.0094 l 0.64786,-4.100036 0.97638,-6.178396 h -1.95273 z"
         id="path5008" />
      <path
         inkscape:connector-curvature="0"
         style="opacity:0.5;fill:#c8c8c8;fill-opacity:1;stroke:none;stroke-width:0.07946856;stroke-linecap:round;stroke-linejoin:round;stroke-miterlimit:4;stroke-dasharray:none;stroke-opacity:1"
         d="m 156.66018,93.290537 a 3.6702396,2.0877363 0 0 1 -0.32829,0.0099 3.6702396,2.0877363 0 0 1 -0.32851,-0.0094 l -0.64807,4.100037 -0.97637,6.178396 h 1.95295 1.95273 l -0.97638,-6.178392 z"
         id="path5010" />
      <path
         id="path5012"
         d="m 168.68849,89.259929 -6.1784,0.976373 -4.10054,0.648063 a 2.0877363,3.6702396 0 0 1 0.01,0.328513 2.0877363,3.6702396 0 0 1 -0.009,0.32849 l 4.10004,0.64786 6.17839,0.976377 v -1.952727 z"
         style="opacity:0.5;fill:#c8c8c8;fill-opacity:1;stroke:none;stroke-width:0.07946856;stroke-linecap:round;stroke-linejoin:round;stroke-miterlimit:4;stroke-dasharray:none;stroke-opacity:1"
         inkscape:connector-curvature="0" />
      <path
         id="path5014"
         d="m 154.25401,91.541169 a 2.0877363,3.6702396 0 0 1 -0.01,-0.328291 2.0877363,3.6702396 0 0 1 0.009,-0.328513 l -4.10004,-0.648063 -6.1784,-0.976373 v 1.952949 1.952727 l 6.1784,-0.976377 z"
         style="opacity:0.5;fill:#c8c8c8;fill-opacity:1;stroke:none;stroke-width:0.07946856;stroke-linecap:round;stroke-linejoin:round;stroke-miterlimit:4;stroke-dasharray:none;stroke-opacity:1"
         inkscape:connector-curvature="0" />
      <path
         inkscape:connector-curvature="0"
         style="opacity:0.5;fill:#c8c8c8;fill-opacity:1;stroke:none;stroke-width:0.07946856;stroke-linecap:round;stroke-linejoin:round;stroke-miterlimit:4;stroke-dasharray:none;stroke-opacity:1"
         d="m 163.68843,81.094391 -3.67839,5.059186 -2.44127,3.357769 a 3.6702396,2.0877363 45 0 1 0.23931,0.225277 3.6702396,2.0877363 45 0 1 0.22562,0.238938 l 3.35727,-2.441057 5.05919,-3.678383 -1.38079,-1.380787 z"
         id="path5016" />
      <path
         inkscape:connector-curvature="0"
         style="opacity:0.5;fill:#c8c8c8;fill-opacity:1;stroke:none;stroke-width:0.07946856;stroke-linecap:round;stroke-linejoin:round;stroke-miterlimit:4;stroke-dasharray:none;stroke-opacity:1"
         d="M 155.09479,92.914188 A 3.6702396,2.0877363 45 0 1 154.85564,92.689067 3.6702396,2.0877363 45 0 1 154.63,92.450113 l -3.35741,2.440915 -5.05919,3.678385 1.38095,1.380943 1.38078,1.380784 3.67838,-5.059185 z"
         id="path5018" />
      <path
         id="path5020"
         d="m 146.2134,83.856121 5.05919,3.678385 3.35777,2.441271 a 2.0877363,3.6702396 45 0 1 0.22528,-0.239311 2.0877363,3.6702396 45 0 1 0.23893,-0.225617 l -2.44105,-3.35727 -3.67839,-5.059188 -1.38078,1.380787 z"
         style="opacity:0.5;fill:#c8c8c8;fill-opacity:1;stroke:none;stroke-width:0.07946856;stroke-linecap:round;stroke-linejoin:round;stroke-miterlimit:4;stroke-dasharray:none;stroke-opacity:1"
         inkscape:connector-curvature="0" />
      <path
         id="path5022"
         d="m 158.0332,92.449757 a 2.0877363,3.6702396 45 0 1 -0.22512,0.239154 2.0877363,3.6702396 45 0 1 -0.23895,0.225633 l 2.44091,3.357414 3.67839,5.059182 1.38094,-1.38094 1.38079,-1.380787 -5.05919,-3.678383 z"
         style="opacity:1;fill:#23fb00;fill-opacity:0.99215686;stroke:none;stroke-width:0.07946856;stroke-linecap:round;stroke-linejoin:round;stroke-miterlimit:4;stroke-dasharray:none;stroke-opacity:1"
         inkscape:connector-curvature="0" />
    </g>
    <g
       id="g5360"
       inkscape:export-filename="/home/amimaro/5.png"
       inkscape:export-xdpi="308"
       inkscape:export-ydpi="308">
      <path
         id="path5024"
         d="m 185.06384,78.85606 0.97637,6.178396 0.64807,4.100541 a 3.6702396,2.0877363 0 0 1 0.32851,-0.0099 3.6702396,2.0877363 0 0 1 0.32849,0.0094 l 0.64786,-4.100036 0.97638,-6.178396 h -1.95273 z"
         style="opacity:0.5;fill:#c8c8c8;fill-opacity:1;stroke:none;stroke-width:0.07946856;stroke-linecap:round;stroke-linejoin:round;stroke-miterlimit:4;stroke-dasharray:none;stroke-opacity:1"
         inkscape:connector-curvature="0" />
      <path
         id="path5026"
         d="m 187.34508,93.290537 a 3.6702396,2.0877363 0 0 1 -0.32829,0.0099 3.6702396,2.0877363 0 0 1 -0.32851,-0.0094 l -0.64807,4.100037 -0.97637,6.178396 h 1.95295 1.95273 l -0.97638,-6.178392 z"
         style="opacity:1;fill:#00fad0;fill-opacity:0.99215686;stroke:none;stroke-width:0.07946856;stroke-linecap:round;stroke-linejoin:round;stroke-miterlimit:4;stroke-dasharray:none;stroke-opacity:1"
         inkscape:connector-curvature="0" />
      <path
         inkscape:connector-curvature="0"
         style="opacity:0.5;fill:#c8c8c8;fill-opacity:1;stroke:none;stroke-width:0.07946856;stroke-linecap:round;stroke-linejoin:round;stroke-miterlimit:4;stroke-dasharray:none;stroke-opacity:1"
         d="m 199.37339,89.259929 -6.1784,0.976373 -4.10054,0.648063 a 2.0877363,3.6702396 0 0 1 0.01,0.328513 2.0877363,3.6702396 0 0 1 -0.009,0.32849 l 4.10004,0.64786 6.17839,0.976377 v -1.952727 z"
         id="path5028" />
      <path
         inkscape:connector-curvature="0"
         style="opacity:0.5;fill:#c8c8c8;fill-opacity:1;stroke:none;stroke-width:0.07946856;stroke-linecap:round;stroke-linejoin:round;stroke-miterlimit:4;stroke-dasharray:none;stroke-opacity:1"
         d="m 184.93891,91.541169 a 2.0877363,3.6702396 0 0 1 -0.01,-0.328291 2.0877363,3.6702396 0 0 1 0.009,-0.328513 l -4.10004,-0.648063 -6.1784,-0.976373 v 1.952949 1.952727 l 6.1784,-0.976377 z"
         id="path5030" />
      <path
         id="path5032"
         d="m 194.37333,81.094391 -3.67839,5.059186 -2.44127,3.357769 a 3.6702396,2.0877363 45 0 1 0.23931,0.225277 3.6702396,2.0877363 45 0 1 0.22562,0.238938 l 3.35727,-2.441057 5.05919,-3.678383 -1.38079,-1.380787 z"
         style="opacity:0.5;fill:#c8c8c8;fill-opacity:1;stroke:none;stroke-width:0.07946856;stroke-linecap:round;stroke-linejoin:round;stroke-miterlimit:4;stroke-dasharray:none;stroke-opacity:1"
         inkscape:connector-curvature="0" />
      <path
         id="path5034"
         d="m 185.77969,92.914188 a 3.6702396,2.0877363 45 0 1 -0.23915,-0.225121 3.6702396,2.0877363 45 0 1 -0.22564,-0.238954 l -3.35741,2.440915 -5.05919,3.678385 1.38095,1.380943 1.38078,1.380784 3.67838,-5.059185 z"
         style="opacity:0.5;fill:#c8c8c8;fill-opacity:1;stroke:none;stroke-width:0.07946856;stroke-linecap:round;stroke-linejoin:round;stroke-miterlimit:4;stroke-dasharray:none;stroke-opacity:1"
         inkscape:connector-curvature="0" />
      <path
         inkscape:connector-curvature="0"
         style="opacity:0.5;fill:#c8c8c8;fill-opacity:1;stroke:none;stroke-width:0.07946856;stroke-linecap:round;stroke-linejoin:round;stroke-miterlimit:4;stroke-dasharray:none;stroke-opacity:1"
         d="m 176.8983,83.856121 5.05919,3.678385 3.35777,2.441271 a 2.0877363,3.6702396 45 0 1 0.22528,-0.239311 2.0877363,3.6702396 45 0 1 0.23893,-0.225617 l -2.44105,-3.35727 -3.67839,-5.059188 -1.38078,1.380787 z"
         id="path5036" />
      <path
         inkscape:connector-curvature="0"
         style="opacity:0.5;fill:#c8c8c8;fill-opacity:1;stroke:none;stroke-width:0.07946856;stroke-linecap:round;stroke-linejoin:round;stroke-miterlimit:4;stroke-dasharray:none;stroke-opacity:1"
         d="m 188.7181,92.449757 a 2.0877363,3.6702396 45 0 1 -0.22512,0.239154 2.0877363,3.6702396 45 0 1 -0.23895,0.225633 l 2.44091,3.357414 3.67839,5.059182 1.38094,-1.38094 1.38079,-1.380787 -5.05919,-3.678383 z"
         id="path5038" />
    </g>
    <g
       id="g5370"
       inkscape:export-filename="/home/amimaro/6.png"
       inkscape:export-xdpi="308"
       inkscape:export-ydpi="308">
      <path
         inkscape:connector-curvature="0"
         style="opacity:0.5;fill:#c8c8c8;fill-opacity:1;stroke:none;stroke-width:0.07946856;stroke-linecap:round;stroke-linejoin:round;stroke-miterlimit:4;stroke-dasharray:none;stroke-opacity:1"
         d="m 215.7487,78.85606 0.97637,6.178396 0.64807,4.100541 a 3.6702396,2.0877363 0 0 1 0.32851,-0.0099 3.6702396,2.0877363 0 0 1 0.32849,0.0094 l 0.64786,-4.100036 0.97638,-6.178396 h -1.95273 z"
         id="path5040" />
      <path
         inkscape:connector-curvature="0"
         style="opacity:0.5;fill:#c8c8c8;fill-opacity:1;stroke:none;stroke-width:0.07946856;stroke-linecap:round;stroke-linejoin:round;stroke-miterlimit:4;stroke-dasharray:none;stroke-opacity:1"
         d="m 218.02994,93.290537 a 3.6702396,2.0877363 0 0 1 -0.32829,0.0099 3.6702396,2.0877363 0 0 1 -0.32851,-0.0094 l -0.64807,4.100037 -0.97637,6.178396 h 1.95295 1.95273 L 218.678,97.391078 Z"
         id="path5042" />
      <path
         id="path5044"
         d="m 230.05825,89.259929 -6.1784,0.976373 -4.10054,0.648063 a 2.0877363,3.6702396 0 0 1 0.01,0.328513 2.0877363,3.6702396 0 0 1 -0.009,0.32849 l 4.10004,0.64786 6.17839,0.976377 v -1.952727 z"
         style="opacity:0.5;fill:#c8c8c8;fill-opacity:1;stroke:none;stroke-width:0.07946856;stroke-linecap:round;stroke-linejoin:round;stroke-miterlimit:4;stroke-dasharray:none;stroke-opacity:1"
         inkscape:connector-curvature="0" />
      <path
         id="path5046"
         d="m 215.62377,91.541169 a 2.0877363,3.6702396 0 0 1 -0.01,-0.328291 2.0877363,3.6702396 0 0 1 0.009,-0.328513 l -4.10004,-0.648063 -6.1784,-0.976373 v 1.952949 1.952727 l 6.1784,-0.976377 z"
         style="opacity:0.5;fill:#c8c8c8;fill-opacity:1;stroke:none;stroke-width:0.07946856;stroke-linecap:round;stroke-linejoin:round;stroke-miterlimit:4;stroke-dasharray:none;stroke-opacity:1"
         inkscape:connector-curvature="0" />
      <path
         inkscape:connector-curvature="0"
         style="opacity:0.5;fill:#c8c8c8;fill-opacity:1;stroke:none;stroke-width:0.07946856;stroke-linecap:round;stroke-linejoin:round;stroke-miterlimit:4;stroke-dasharray:none;stroke-opacity:1"
         d="m 225.05819,81.094391 -3.67839,5.059186 -2.44127,3.357769 a 3.6702396,2.0877363 45 0 1 0.23931,0.225277 3.6702396,2.0877363 45 0 1 0.22562,0.238938 l 3.35727,-2.441057 5.05919,-3.678383 -1.38079,-1.380787 z"
         id="path5048" />
      <path
         inkscape:connector-curvature="0"
         style="opacity:1;fill:#001cfb;fill-opacity:0.99215686;stroke:none;stroke-width:0.07946856;stroke-linecap:round;stroke-linejoin:round;stroke-miterlimit:4;stroke-dasharray:none;stroke-opacity:1"
         d="m 216.46455,92.914188 a 3.6702396,2.0877363 45 0 1 -0.23915,-0.225121 3.6702396,2.0877363 45 0 1 -0.22564,-0.238954 l -3.35741,2.440915 -5.05919,3.678385 1.38095,1.380943 1.38078,1.380784 3.67838,-5.059185 z"
         id="path5050" />
      <path
         id="path5052"
         d="m 207.58316,83.856121 5.05919,3.678385 3.35777,2.441271 a 2.0877363,3.6702396 45 0 1 0.22528,-0.239311 2.0877363,3.6702396 45 0 1 0.23893,-0.225617 l -2.44105,-3.35727 -3.67839,-5.059188 -1.38078,1.380787 z"
         style="opacity:0.5;fill:#c8c8c8;fill-opacity:1;stroke:none;stroke-width:0.07946856;stroke-linecap:round;stroke-linejoin:round;stroke-miterlimit:4;stroke-dasharray:none;stroke-opacity:1"
         inkscape:connector-curvature="0" />
      <path
         id="path5054"
         d="m 219.40296,92.449757 a 2.0877363,3.6702396 45 0 1 -0.22512,0.239154 2.0877363,3.6702396 45 0 1 -0.23895,0.225633 l 2.44091,3.357414 3.67839,5.059182 1.38094,-1.38094 1.38079,-1.380787 -5.05919,-3.678383 z"
         style="opacity:0.5;fill:#c8c8c8;fill-opacity:1;stroke:none;stroke-width:0.07946856;stroke-linecap:round;stroke-linejoin:round;stroke-miterlimit:4;stroke-dasharray:none;stroke-opacity:1"
         inkscape:connector-curvature="0" />
    </g>
    <g
       id="g5380"
       inkscape:export-filename="/home/amimaro/7.png"
       inkscape:export-xdpi="308"
       inkscape:export-ydpi="308">
      <path
         id="path5056"
         d="m 246.43359,78.85606 0.97637,6.178396 0.64807,4.100541 a 3.6702396,2.0877363 0 0 1 0.32851,-0.0099 3.6702396,2.0877363 0 0 1 0.32849,0.0094 l 0.64786,-4.100036 0.97638,-6.178396 h -1.95273 z"
         style="opacity:0.5;fill:#c8c8c8;fill-opacity:1;stroke:none;stroke-width:0.07946856;stroke-linecap:round;stroke-linejoin:round;stroke-miterlimit:4;stroke-dasharray:none;stroke-opacity:1"
         inkscape:connector-curvature="0" />
      <path
         id="path5058"
         d="m 248.71483,93.290537 a 3.6702396,2.0877363 0 0 1 -0.32829,0.0099 3.6702396,2.0877363 0 0 1 -0.32851,-0.0094 l -0.64807,4.100037 -0.97637,6.178396 h 1.95295 1.95273 l -0.97638,-6.178392 z"
         style="opacity:0.5;fill:#c8c8c8;fill-opacity:1;stroke:none;stroke-width:0.07946856;stroke-linecap:round;stroke-linejoin:round;stroke-miterlimit:4;stroke-dasharray:none;stroke-opacity:1"
         inkscape:connector-curvature="0" />
      <path
         inkscape:connector-curvature="0"
         style="opacity:0.5;fill:#c8c8c8;fill-opacity:1;stroke:none;stroke-width:0.07946856;stroke-linecap:round;stroke-linejoin:round;stroke-miterlimit:4;stroke-dasharray:none;stroke-opacity:1"
         d="m 260.74314,89.259929 -6.1784,0.976373 -4.10054,0.648063 a 2.0877363,3.6702396 0 0 1 0.01,0.328513 2.0877363,3.6702396 0 0 1 -0.009,0.32849 l 4.10004,0.64786 6.17839,0.976377 v -1.952727 z"
         id="path5060" />
      <path
         inkscape:connector-curvature="0"
         style="opacity:1;fill:#e300fb;fill-opacity:0.99215686;stroke:none;stroke-width:0.07946856;stroke-linecap:round;stroke-linejoin:round;stroke-miterlimit:4;stroke-dasharray:none;stroke-opacity:1"
         d="m 246.30866,91.541169 a 2.0877363,3.6702396 0 0 1 -0.01,-0.328291 2.0877363,3.6702396 0 0 1 0.009,-0.328513 l -4.10004,-0.648063 -6.1784,-0.976373 v 1.952949 1.952727 l 6.1784,-0.976377 z"
         id="path5062" />
      <path
         id="path5064"
         d="m 255.74308,81.094391 -3.67839,5.059186 -2.44127,3.357769 a 3.6702396,2.0877363 45 0 1 0.23931,0.225277 3.6702396,2.0877363 45 0 1 0.22562,0.238938 l 3.35727,-2.441057 5.05919,-3.678383 -1.38079,-1.380787 z"
         style="opacity:0.5;fill:#c8c8c8;fill-opacity:1;stroke:none;stroke-width:0.07946856;stroke-linecap:round;stroke-linejoin:round;stroke-miterlimit:4;stroke-dasharray:none;stroke-opacity:1"
         inkscape:connector-curvature="0" />
      <path
         id="path5066"
         d="m 247.14944,92.914188 a 3.6702396,2.0877363 45 0 1 -0.23915,-0.225121 3.6702396,2.0877363 45 0 1 -0.22564,-0.238954 l -3.35741,2.440915 -5.05919,3.678385 1.38095,1.380943 1.38078,1.380784 3.67838,-5.059185 z"
         style="opacity:0.5;fill:#c8c8c8;fill-opacity:1;stroke:none;stroke-width:0.07946856;stroke-linecap:round;stroke-linejoin:round;stroke-miterlimit:4;stroke-dasharray:none;stroke-opacity:1"
         inkscape:connector-curvature="0" />
      <path
         inkscape:connector-curvature="0"
         style="opacity:0.5;fill:#c8c8c8;fill-opacity:1;stroke:none;stroke-width:0.07946856;stroke-linecap:round;stroke-linejoin:round;stroke-miterlimit:4;stroke-dasharray:none;stroke-opacity:1"
         d="m 238.26805,83.856121 5.05919,3.678385 3.35777,2.441271 a 2.0877363,3.6702396 45 0 1 0.22528,-0.239311 2.0877363,3.6702396 45 0 1 0.23893,-0.225617 l -2.44105,-3.35727 -3.67839,-5.059188 -1.38078,1.380787 z"
         id="path5068" />
      <path
         inkscape:connector-curvature="0"
         style="opacity:0.5;fill:#c8c8c8;fill-opacity:1;stroke:none;stroke-width:0.07946856;stroke-linecap:round;stroke-linejoin:round;stroke-miterlimit:4;stroke-dasharray:none;stroke-opacity:1"
         d="m 250.08785,92.449757 a 2.0877363,3.6702396 45 0 1 -0.22512,0.239154 2.0877363,3.6702396 45 0 1 -0.23895,0.225633 l 2.44091,3.357414 3.67839,5.059182 1.38094,-1.38094 1.38079,-1.380787 -5.05919,-3.678383 z"
         id="path5070" />
    </g>
    <g
       id="g5390"
       inkscape:export-filename="/home/amimaro/8.png"
       inkscape:export-xdpi="308"
       inkscape:export-ydpi="308">
      <path
         inkscape:connector-curvature="0"
         style="opacity:0.5;fill:#c8c8c8;fill-opacity:1;stroke:none;stroke-width:0.07946856;stroke-linecap:round;stroke-linejoin:round;stroke-miterlimit:4;stroke-dasharray:none;stroke-opacity:1"
         d="m 277.11847,78.85606 0.97637,6.178396 0.64807,4.100541 a 3.6702396,2.0877363 0 0 1 0.32851,-0.0099 3.6702396,2.0877363 0 0 1 0.32849,0.0094 l 0.64786,-4.100036 0.97638,-6.178396 h -1.95273 z"
         id="path5072" />
      <path
         inkscape:connector-curvature="0"
         style="opacity:0.5;fill:#c8c8c8;fill-opacity:1;stroke:none;stroke-width:0.07946856;stroke-linecap:round;stroke-linejoin:round;stroke-miterlimit:4;stroke-dasharray:none;stroke-opacity:1"
         d="m 279.39971,93.290537 a 3.6702396,2.0877363 0 0 1 -0.32829,0.0099 3.6702396,2.0877363 0 0 1 -0.32851,-0.0094 l -0.64807,4.100037 -0.97637,6.178396 h 1.95295 1.95273 l -0.97638,-6.178392 z"
         id="path5074" />
      <path
         id="path5076"
         d="m 291.42802,89.259929 -6.1784,0.976373 -4.10054,0.648063 a 2.0877363,3.6702396 0 0 1 0.01,0.328513 2.0877363,3.6702396 0 0 1 -0.009,0.32849 l 4.10004,0.64786 6.17839,0.976377 v -1.952727 z"
         style="opacity:0.5;fill:#c8c8c8;fill-opacity:1;stroke:none;stroke-width:0.07946856;stroke-linecap:round;stroke-linejoin:round;stroke-miterlimit:4;stroke-dasharray:none;stroke-opacity:1"
         inkscape:connector-curvature="0" />
      <path
         id="path5078"
         d="m 276.99354,91.541169 a 2.0877363,3.6702396 0 0 1 -0.01,-0.328291 2.0877363,3.6702396 0 0 1 0.009,-0.328513 l -4.10004,-0.648063 -6.1784,-0.976373 v 1.952949 1.952727 l 6.1784,-0.976377 z"
         style="opacity:0.5;fill:#c8c8c8;fill-opacity:1;stroke:none;stroke-width:0.07946856;stroke-linecap:round;stroke-linejoin:round;stroke-miterlimit:4;stroke-dasharray:none;stroke-opacity:1"
         inkscape:connector-curvature="0" />
      <path
         inkscape:connector-curvature="0"
         style="opacity:0.5;fill:#c8c8c8;fill-opacity:1;stroke:none;stroke-width:0.07946856;stroke-linecap:round;stroke-linejoin:round;stroke-miterlimit:4;stroke-dasharray:none;stroke-opacity:1"
         d="m 286.42796,81.094391 -3.67839,5.059186 -2.44127,3.357769 a 3.6702396,2.0877363 45 0 1 0.23931,0.225277 3.6702396,2.0877363 45 0 1 0.22562,0.238938 l 3.35727,-2.441057 5.05919,-3.678383 -1.38079,-1.380787 z"
         id="path5080" />
      <path
         inkscape:connector-curvature="0"
         style="opacity:0.5;fill:#c8c8c8;fill-opacity:1;stroke:none;stroke-width:0.07946856;stroke-linecap:round;stroke-linejoin:round;stroke-miterlimit:4;stroke-dasharray:none;stroke-opacity:1"
         d="m 277.83432,92.914188 a 3.6702396,2.0877363 45 0 1 -0.23915,-0.225121 3.6702396,2.0877363 45 0 1 -0.22564,-0.238954 l -3.35741,2.440915 -5.05919,3.678385 1.38095,1.380943 1.38078,1.380784 3.67838,-5.059185 z"
         id="path5082" />
      <path
         id="path5084"
         d="m 268.95293,83.856121 5.05919,3.678385 3.35777,2.441271 a 2.0877363,3.6702396 45 0 1 0.22528,-0.239311 2.0877363,3.6702396 45 0 1 0.23893,-0.225617 l -2.44105,-3.35727 -3.67839,-5.059188 -1.38078,1.380787 z"
         style="opacity:1;fill:#fb00af;fill-opacity:0.99215686;stroke:none;stroke-width:0.07946856;stroke-linecap:round;stroke-linejoin:round;stroke-miterlimit:4;stroke-dasharray:none;stroke-opacity:1"
         inkscape:connector-curvature="0" />
      <path
         id="path5086"
         d="m 280.77273,92.449757 a 2.0877363,3.6702396 45 0 1 -0.22512,0.239154 2.0877363,3.6702396 45 0 1 -0.23895,0.225633 l 2.44091,3.357414 3.67839,5.059182 1.38094,-1.38094 1.38079,-1.380787 -5.05919,-3.678383 z"
         style="opacity:0.5;fill:#c8c8c8;fill-opacity:1;stroke:none;stroke-width:0.07946856;stroke-linecap:round;stroke-linejoin:round;stroke-miterlimit:4;stroke-dasharray:none;stroke-opacity:1"
         inkscape:connector-curvature="0" />
    </g>
  </g>
</svg>
